<?xml version="1.0" encoding="UTF-8"?><svg id="Laag_1" xmlns="http://www.w3.org/2000/svg" viewBox="0 0 1922.06 501.18"><defs><style>.cls-1{opacity:.1;}.cls-2{fill:#bb00f9;}</style></defs><g id="_1e_laag" class="cls-1"><path class="cls-2" d="M84.74,141.99c.06-1.23,.13-2.47,.21-3.71m1726.6-18.9c-53.13,13.19-34.06,50.9-34.06,50.9,0,0-18.39-3.78-44.62,13.33-26.23,17.1-25.48,58.88-25.48,58.88,0,0-28.34-17.04-60.69-21.5-5.45,45.92,36.44,80.88,36.44,80.88,0,0-18.39-13.37-42.57-11.65-2.38,7.54-7.83,40.1,16.01,51.75-35.42,2.74-59.6,30.16-50.75,52.09-6.13-9.25-22.14-19.88-50.07-27.42-27.93-7.54-86.51,5.48-86.51,5.48,0,0,7.15-29.13-4.43-46.27-11.24-2.4-40.37,16.18-45.47,33.03-3.75-24.62-34.57-38.86-59.77-31.66,0-16.11-14.3-25.36-32.36-32.56-18.05-7.2-66.76-8.91-65.39,15.76-10.22-49.35-48.13-50.38-48.13-50.38,0,0-11.47,23.65-1.91,49.69-9.17-14.74-34.16-10.08-34.16-10.08,0,0-10.48,35.79,17.79,61.15-31.33-15.08-77.85,14.36-77.85,14.36,0,0,17.22-20.87,16.88-37.32-7.49-3.43-23.5-6.85-42.23,3.43,13.62-18.51,8.17-30.84,8.17-30.84,0,0-41.21-1.37-60.97,28.79-13.96-10.62-53.13-5.14-60.97,21.59-7.83-14.39-46.32-25.36-61.65-3.77-19.07-21.25-62.33-47.98-96.05-29.82-2.67,16.14,15.97,51.73,41.45,63.75,.52,.2,1.02,.42,1.47,.68-.49-.21-.98-.45-1.47-.68-6.29-2.39-17.87-.19-25.1,5.82-24.18-20.91-53.13-22.62-75.61-10.97,5.45-15.42,15.67-50.38,5.11-84.31-11.58-4.11-38.83,.34-53.47,31.19,2.72-34.61-28.27-54.83-28.27-54.83,0,0-34.4,25.7-26.23,73-34.06-33.24-76.29-21.25-94.68,11.99-6.47-47.29-29.63-44.55-29.63-44.55,0,0-18.39,19.19-15.67,41.47-2.72-9.94-12.26-28.44-35.08-32.9-11.92,8.23-26.23,44.55-1.36,75.74-4.43-2.4-13.28,0-18.05,8.57-6.13-25.36-22.82-35.98-40.87-45.58-7.15,34.27,14.65,44.89,14.65,44.89,0,0-24.18-6.17-32.7,0-1.7-68.54-37.72-92.19-37.72-92.19,0,0-30.4,23.13-26.3,80.19-45.97-51.41-113.68-47.04-133.77-22.36,3.16-38.81-27.68-76.34-41.48-85.33,24.78,.26,45.98-17.22,50.83-29.3-8.43-8.48-36.27-13.88-59.01-2.31,18.39-15.42,13.28-33.45,13.28-33.45,0,0-12.52-7.42-39.08,.81,6.9-10.8,0-23.13-18.39-26.73,1.53-19.28-13.03-52.18-28.87-57.83,0,0-16.49-59.78-84.74-60.51,0,105.88,.04,419.7,.04,419.7H1922.06l-.67-501.18s-104.95,17.74-109.84,119.37Z"/></g></svg>