<?xml version="1.0" encoding="UTF-8"?><svg id="Laag_1" xmlns="http://www.w3.org/2000/svg" viewBox="0 0 34.83 34.83"><defs><style>.instagram_svg{fill:#ef6d25;}</style></defs><path class="instagram_svg" d="M25.36,34.83H9.47c-5.22,0-9.47-4.25-9.47-9.47V9.47C0,4.25,4.25,0,9.47,0h15.89c5.22,0,9.47,4.25,9.47,9.47v15.89c0,5.22-4.25,9.47-9.47,9.47ZM9.47,3.01c-3.56,0-6.45,2.9-6.45,6.45v15.89c0,3.56,2.9,6.45,6.45,6.45h15.89c3.56,0,6.45-2.9,6.45-6.45V9.47c0-3.56-2.9-6.45-6.45-6.45H9.47Z"/><path class="instagram_svg" d="M17.41,26.88c-4.98,0-9.04-4.05-9.04-9.04s4.05-9.04,9.04-9.04,9.04,4.05,9.04,9.04-4.05,9.04-9.04,9.04Zm0-15.22c-3.41,0-6.18,2.77-6.18,6.18s2.77,6.18,6.18,6.18,6.18-2.77,6.18-6.18-2.77-6.18-6.18-6.18Z"/><circle class="instagram_svg" cx="26.73" cy="8.32" r="2.14"/></svg>