<?xml version="1.0" encoding="UTF-8"?><svg id="Laag_1" xmlns="http://www.w3.org/2000/svg" viewBox="0 0 1918.52 501.18"><defs><style>.cls-1{opacity:.1;}.cls-2{fill:#bb00f9;}</style></defs><g id="_1e_laag" class="cls-1"><path class="cls-2" d="M84.59,141.99c.06-1.23,.13-2.47,.21-3.71m1723.42-18.9c-53.03,13.19-34,50.9-34,50.9,0,0-18.36-3.78-44.54,13.33-26.18,17.1-25.43,58.88-25.43,58.88,0,0-28.28-17.04-60.58-21.5-5.44,45.92,36.38,80.88,36.38,80.88,0,0-18.36-13.37-42.5-11.65-2.38,7.54-7.82,40.1,15.98,51.75-35.36,2.74-59.49,30.16-50.65,52.09-6.12-9.25-22.1-19.88-49.97-27.42-27.88-7.54-86.35,5.48-86.35,5.48,0,0,7.14-29.13-4.42-46.27-11.22-2.4-40.29,16.18-45.39,33.03-3.74-24.62-34.5-38.86-59.66-31.66,0-16.11-14.28-25.36-32.3-32.56-18.02-7.2-66.63-8.91-65.27,15.76-10.2-49.35-48.04-50.38-48.04-50.38,0,0-11.45,23.65-1.91,49.69-9.16-14.74-34.1-10.08-34.1-10.08,0,0-10.46,35.79,17.76,61.15-31.28-15.08-77.71,14.36-77.71,14.36,0,0,17.19-20.87,16.85-37.32-7.48-3.43-23.46-6.85-42.16,3.43,13.6-18.51,8.16-30.84,8.16-30.84,0,0-41.14-1.37-60.85,28.79-13.94-10.62-53.03-5.14-60.85,21.59-7.82-14.39-46.24-25.36-61.53-3.77-19.04-21.25-62.21-47.98-95.87-29.82-2.67,16.14,15.94,51.73,41.37,63.75,.52,.2,1.02,.42,1.46,.68-.49-.21-.98-.45-1.46-.68-6.28-2.39-17.83-.19-25.05,5.82-24.14-20.91-53.03-22.62-75.47-10.97,5.44-15.42,15.64-50.38,5.1-84.31-11.56-4.11-38.76,.34-53.37,31.19,2.72-34.61-28.22-54.83-28.22-54.83,0,0-34.34,25.7-26.18,73-34-33.24-76.15-21.25-94.51,11.99-6.46-47.29-29.58-44.55-29.58-44.55,0,0-18.36,19.19-15.64,41.47-2.72-9.94-12.24-28.44-35.02-32.9-11.9,8.23-26.18,44.55-1.36,75.74-4.42-2.4-13.26,0-18.02,8.57-6.12-25.36-22.78-35.98-40.8-45.58-7.14,34.27,14.62,44.89,14.62,44.89,0,0-24.14-6.17-32.64,0-1.7-68.54-37.65-92.19-37.65-92.19,0,0-30.34,23.13-26.25,80.19-45.89-51.41-113.47-47.04-133.52-22.36,3.15-38.81-27.63-76.34-41.4-85.33,24.73,.26,45.9-17.22,50.74-29.3-8.41-8.48-36.21-13.88-58.9-2.31,18.36-15.42,13.26-33.45,13.26-33.45,0,0-12.49-7.42-39.01,.81,6.88-10.8,0-23.13-18.36-26.73,1.53-19.28-13-52.18-28.81-57.83,0,0-16.46-59.78-84.59-60.51,0,105.88,.04,419.7,.04,419.7H1918.52l-.66-501.18s-104.76,17.74-109.64,119.37Z"/></g></svg>