<?xml version="1.0" encoding="UTF-8"?><svg id="Laag_1" xmlns="http://www.w3.org/2000/svg" viewBox="0 0 1920.37 1047.74"><defs><style>.layer3_svg{fill:#27205B;}.cls-2{fill:#312B77;}</style></defs><g><path class="layer3_svg" d="M991.88,545.63s24.49,39.72,45.3,55.11c20.81,15.39,35.04-3.19,39.07,19.12,4.04,22.31,17.43,70.23,50.78,121.55,33.34,51.31,41.03,59.8,52.11,69.91,11.08,10.11,13.51,12.97,7.5,14.21-6.01,1.24-13.27,.45-13.27,.45,0,0-16.69,16.88-19.5,38.98-20.94,1.04-89.4,0-89.4,0l-82.38-282.88,9.8-36.45Z"/><path class="layer3_svg" d="M1040.25,613.15v-35.74c0-7.15,1.7-10.89,10.89-10.89s13.62,1.7,13.62,9.19v56.51"/></g><path class="cls-2" d="M302.19,764.45c-.11-4.44-6.89-9.44-11.11-7.67-1.78-7.67-11.33-9.33-14.44-9.22,4.08-3.59-2.31-12.75-6.31-11.53-3.11-14.5-15.17-8.89-15.17-8.89l-66.25-52.31s-16.9,101.7-188.91,119.06v253.84H1920.37v-347.25s-108.73,61.45-155.71,75.4c-46.98,13.96-68.77,20.09-68.77,20.09,0,0-1.87-5.11-15.23-1.53,0,0-40.6-164.43-77.87-248.17-37.28-83.74-127.82-353.1-83.1-517.88,15.83-58.32-79.79-8.72-79.79-8.72-25.53,97.36,6.13,305.49,48.51,481.15,42.38,175.66,52.91,313.85,53.65,327.83-4.18-.51-13.76,4.34-13.76,4.34,0,0-7.28-.06-22.86,2.56-10.29-14.67-20.73-11.03-23.21-9.38-.82-1.07-3.52-3.27-6.59-3.97-3.06-.7-6.81,1.72-6.87,6.04-.61-1.38-3.68-3.04-7.07-2.16-3.39,.89-5.16,4.86-3.96,9.35-7.99-1.93-11.3,5.47-11.3,5.47,0,0-2.8-4.86-7.91-4.5-5.11,.35-9.63,8.1-9.63,8.1,0,0-1.63,.18-3.89,.42-2.5-1.63-8.47-2.67-8.47-2.67,0,0,3.7-3.06,6.33-4.6-1.58-.55-6.25,.85-10.26,4.17-2.9-.56-7.97,1.35-7.97,1.35,0,0,2.99-9,7.56-14.45-2.97,.05-8.64,9.48-8.64,9.48,0,0-2.09-12.25-.54-17.18-6.28,6.56-2.76,21.93-2.76,21.93,0,0-.35-.07-.76-.14-5.54-7.39-10.85-8.99-17.33-10.06,3.17,1.01,10.06,5.88,13.29,9.82-3.41-.36-8.55,2.34-8.55,2.34,0,0-2.3-.28-5.75,.46,.64-.03,4.03,.54,4.03,.54,0,0-.77,.52-1.25,.9-6.87-1.68-11.59,.63-11.59,.63,0,0-.71-1.48-2.52-2.56,2.13-2.07,6.57-4.58,9.42-4.84-1.83-1.37-4.13-.17-4.13-.17,0,0,3.11-3.95,7.76-5.63-7.47-.31-17.47,10.31-17.47,10.31,0,0-1.35-3.53-1.18-4.54,.17-1.01,3.96-10.18,7.64-14.71-3.09,.28-8.59,9.77-8.59,9.77,0,0-2.37-11.46-.59-17.47-4.65,5.05-4.54,15.46-2.5,23.31-2.38-3.65-7.58-10.35-18.35-11.58,13.99,6.14,18.1,16.23,18.42,20.37-6.03-8.49-12.54-8.97-19.43-7.76,13.64,1.14,18.79,9.46,18.79,9.46,0,0-.3,.03-3.29,.47-4.98-4.53-14.62-3.89-18.53-1.89-5.44-4.12-15.56-1.82-19.52,1.11-6.39-1.86-14.99,.84-18.25,4.08-2.17-1.04-7.85,.53-7.85,.53,0,0-1.21-1.28-5.62-3.83-4.4-2.55-10.21,.38-13.02,3.7-.83-1.53-6.32-3.38-10.29-1.36-1.1-10.43-8.73-9.74-12.29-4.74-2.21-8.21-10.62-4.62-13.3,.81-12.06-2.81-17.43,7.34-17.43,7.34,0,0-1.15-5.36-4.8-6.74-3.65-1.38-5.18,3.29-5.18,3.29,0,0-4.77-2.04-11.56,1.14-9.84-5.33-19.56,0-19.56,0,0,0-11.95-5.39-24.1,6.37-7.18-10.72-15.6-10.06-19.01-2.69-1.2-3.52-7.14-6.53-12-3.69-.43-8.91-7.23-10.16-12-5.43-2.9-7.35-9.69-5.75-13.62,0-3.07-2.42-10.03-2.69-17.17,6.04-.49-17.31,5.94-36.78,19.61-36.78s9.14-2.92,6.33-14.57c-2.81-11.65-17.81-31.6-39.99-74.69-22.17-43.09-51.19-119.56-62.66-151.69-11.47-32.13-15.83-65.13-34.03-64.79-18.21,.34-50.82,88.17-70.56,127.32-19.74,39.15-49.33,75.17-72.22,104.98-22.89,29.81-63.1,69.95-66.68,74.76-3.57,4.81-1.83,5.62,.08,5.72,1.91,.1,5.11-.95,6.94-.82,1.83,.13,12.98,.55,19.62,.09,6.64-.47,7.91-1.49,12.68,4.34s7,14.3,6.56,22.08c-1.28-1.28-6.13-1.91-8.49-.51-6.13-9.38-12.38-5.55-13.98-.7-6-8.94-12.57-.64-12.26,4.53-2.87-2.68-7.53-1.53-12.23,2.51-5.4-10.96-13.43-5.32-19.88,.49-5.23-5.74-15.45-8.87-22.87-7.19-13.99-7.06-26.47,1.44-29.86,5.02-1.98-3.51-6-3.26-7.52,.87-1.01-.6-6.01-1.13-11.52,1.5-5.83-3.44-13.9-2.94-19.55,.6-11.84-3.51-22.18,5.78-22.18,5.78,0,0-.45,.13-2.11,.64-10.4-12.51-16.91-6-18.69-1.41-4.58-5.05-10.14-4.5-12.11-3.32,.07-4.45-2.03-7.99-6.01-8.55-3.98-.55-6.15,3.49-6.15,3.49,0,0-.72-4.08-4.38-4.87-3.66-.79-7,2.15-9.23,5.29-5.34-1.61-8.74,.06-8.74,.06,0,0-.19-.8-.34-1.42-.15-.61-.24-2.23-.24-2.23,0,0,.39-.48,.83-.98,6.37-.41,15.62-6.07,16.38-13.36-14.6-2.6-16.76,12.53-16.76,12.53l-.54,.39s-.07-1.2-.19-6.05c9.24-6.89,7.74-16.85,3.32-23.43-3.14,1.12-7.71,5.56-8.73,12.45-1.91-4.17-6.56-6.98-14.82-8.42,2.59,17.03,10.44,18.76,15.63,18.42,3.19,5.23,4.62,12.43,4.62,12.43,0,0-1.77,.38-3.48,2.13-1.06-3.11-4.47-5.23-9.15-4.98-2.72-4.26-12.68-2.95-12.68-2.95,0,0-.68-2.67-4.77-2.62-1.79-1.99-5.11-1.24-5.11-1.24,0,0-2.38-2.21-6.45-1.39-6.88-4.88-11.74-3.25-11.74-3.25-1.85-3.79-5.13-5.78-9.21-5.86-1.83-.67-6.3-1.37-12.04,.84-6.89-4-14.6-3.45-19.55-.51-4.48-1.91-10.62-1.2-14.92,.63,2.08-1.7,5.74-3.7,8.41-3.97-1.71-1.08-4.33-.14-4.33-.14,0,0,3.36-4.49,7.76-5.63-7.55-.5-17.47,10.31-17.47,10.31,0,0-1.44-3.42-1.17-4.31,.27-.89,3.69-10.17,7.63-14.94-4.48,1.87-8.59,9.77-8.59,9.77,0,0-2.63-9.22-.59-17.47-4.52,4.64-4.24,17.05-2.37,23.51-2.44-4.58-11.06-12.02-18.48-11.79,11.03,5.21,16.19,12.46,17.51,16.47-7.62-7.48-10.68-5.4-12.51-4.29-.64-.15-3.23-.15-6,.44,.98-.06,4.58,.63,4.58,.63,0,0-1.4,.85-2.65,3.34-3.34-4.03-7.22-5.34-11.9-4,.59-2.19-.3-7.21-4.68-8.65-4.38-1.44-7.22,2.56-7.22,2.56-3.86-9.26-10.78-4.1-13.57,0-.83-.75-2.33-.7-2.33-.7"/></svg>