<?xml version="1.0" encoding="UTF-8"?><svg id="Laag_1" xmlns="http://www.w3.org/2000/svg" viewBox="0 0 1920.37 1080"><defs><style>.layer2_svg{fill:#172b42;}</style></defs><g><path class="layer2_svg" d="M1920.37,533.03V0H0V549c44.02-5.88,65.05-53.7,59.72-83.64,56.08-5.43,58.47-51.84,58.94-64.1,22.94-4.76,23.19-18.04,18.07-26.72,1.52,1.54,25.29,7.91,38.9,1.57,3.14-9.66-1.1-24.47-13.01-32.64,20.09,13.61,43.91,6.81,59.77-2.72-5.59-13.61-30.84-32.34-52.65-29.08,7.46-5.92,25.22-19.95,30.58-35.78,.93,15.83,7.24,26.38,27.67,32.75,10.89-44.36-18.18-57.67-18.18-57.67,0,0,2.86-7.33,2.37-24.17,6.66,10.14,34.87,23.9,63.46,17.77-3.57,47.49-31.15,197.11-62.09,282.04-30.94,84.93-64.55,154.05-80.38,213.03-16.34-17.11-57.19-25.02-78.64-.51-2.81-53.87-54.54-64.97-54.54-64.97v405.84H1920v-421.8c-70.02,16.18-59.72,80.94-59.72,80.94,0,0-46.59,1.78-51.63,33.36-11.32-50.96-92.66-255.8-103.59-284.54-10.92-28.74-31.72-112.28-31.72-112.28,0,0,24.93-5.66,39.91-25.06-13.62,43.23,24.85,79.66,68.09,82.04-9.53,18.38,.34,37.45,21.1,45.29,20.76,7.84,46.64,9.52,62.64-8.86-11.57,81.02,55.28,63.95,55.28,63.95Zm-236.36,432.38c-43.12-11.16-88.37,11.67-109,35.55-1.99-18.38-6.95-61.67-27.63-78.77-37.79,31.4-36.81,93.56-36.81,93.56,0,0-18.85-6.24-32.54-.64,15.67-12.27,17.26-30.88,13.69-45.69-19.15,8.94-33.96,21.45-40.87,45.69-2.07-4.23-10.44-11.47-18.07-8.79,19.95-32.04,15.03-57.84-.03-75.2-5.62,.77-29.36,9.19-36.12,33.69-.12-32.69-16.48-41.86-16.48-41.86,0,0-26.04,4.6-28.21,43.05-31.02-41.98-69.07-35.39-95.19-10.37,3.75-55.92-25.45-72.51-25.45-72.51,0,0-27.57,15.32-28.77,54.04-5.03-17.19-30.71-34.64-53.18-31.57-4.34,7.91-10.47,48.26,4.34,82.72-43.66-19.66-75.63,12.35-75.63,12.35,0,0-13.99-8.52-27.98-3.78,19.2-7.25,39.78-27.47,44.63-65-32.43-23.23-86.04,12.77-96.51,28.6-12.51-17.62-52.85-15.32-61.02,5.62-12.51-30.13-45.96-31.91-61.56-22.39-24.54-31.83-60.23-28.68-60.23-28.68,0,0-3.57,16.34,8.36,31.3-18.7-12.36-43.09-5-43.09-5,0,0-5.62,14.81,18.62,38.98-8.7-9.53-51.05-25.96-77.71-15.81,23.38-21.77,16.2-61.2,16.2-61.2,0,0-21.96-4.87-34.25,9.9,2.77-6.44,7.95-27.52-2-46.67-9.45-2.04-42.38,11.49-47.11,49.03-2.69-27.31-52.68-19.29-52.68-19.29,0,0,28.3-22.59,49.75-24.12-10.21-7.4-23.77-.82-23.77-.82,0,0,19.94-21.9,42.67-32.11-43.15-.51-97.32,58.44-97.32,58.44,0,0-8.64-19.13-6.67-25.56,1.97-6.43,28.92-68.63,42.45-82.42-16.6,2.3-47.79,54.64-47.79,54.64,0,0-12.72-63.07-3.56-98.09-17.89,17.57-29.85,72.55-13.11,132.09-7.4-18.18-51.97-66.69-104.25-65.92,62.61,30.89,97.47,68.43,103.92,114.25-23.68-35.36-60.06-54.51-108.85-43.76,71.72,5.99,101.05,48.31,101.05,48.31,0,0-32.68,2.21-43.27,31.97-15.69-30.33-40.99-34.86-40.99-34.86,0,0-14.47,15.83-6.13,48-48.34-13.62-109.28-8.17-136.37,21.42,9.33-21.6-15.46-48.83-50.9-50.9,28.9-10.92,16.2-51.03,16.2-51.03,0,0-18.21-2.89-38.58,7.23,25.76-27.15,8.67-55.83,8.67-55.83,0,0,22.59-175.74,37.93-231.51,15.34-55.77,33.34-136.91,36.34-156.81,7.59-1.85,49.87-20.97,59.07-25.32,9.2-4.35,12.14-7.89,3.97-6.88-8.17,1.01-30.98,5.62-60.21,18.38,16.05-61.12,28.75-202.94,28.75-202.94,0,0,7.8,27.8,21.76,42.82,38.29-32.98,36.93-93.52,36.93-93.52,0,0,17.88,6.67,32.88,.62-13.42,8.08-18.92,29.71-14.02,45.74,37.58-17.67,40.89-47.36,40.89-47.36,0,0,5.79,12.43,18.05,10.55-16.85,22.13-17.71,55.49,0,75.31,11.24,1.78,31.31-16.59,36.15-34.58-.44,8.9,.44,27.69,15.89,42.16,9.49-1.37,26.94-11.06,28.91-43.73,34.65,50.56,74.63,28.76,95.09,11.39-3.03,33.36,9.67,61.62,25.93,72.69,10.31-5.27,29.52-20.61,28.29-54.22,8.13,18.64,26.25,34.13,53.58,30.91,7.42-21.6,4.33-62.31-4.86-82.77,44.77,20.9,75.44-11.79,75.44-11.79,0,0,11.37,7.74,28.29,3.93-16.95,4.02-43.65,32.06-44.01,65.22,21.26,21.08,87-11.37,95.35-29.34,14.82,19.82,54.63,10.47,61.3-3.67,18.75,33.35,53.76,27.08,61.82,20.96,20.66,29.62,60.25,28.29,60.25,28.29,0,0,4.71-16.38-9.42-31.36,4.26,2.55,29.45,12.43,45.04,4.51,.27-7.06-3-22.21-19.77-38.13,24.08,18.8,55.41,21.54,79.1,14.95-13.59,11.45-21.99,31.61-17.29,62.08,22.91,5.45,34.18-9.82,34.18-9.82,0,0-9.78,23.78,2.36,46.76,17.58,1.19,43.86-18.9,46.76-49.12,2.04,23.06,36.77,22.9,53.21,19.19,16.44-3.71,42.79-10.59,45.41-34.91,36.67,2.58,53.55-7.34,62.81-31.91,.75,4.37,14.91,25.25,40.85,34.72,10.96-12.31,11.85-28.2,6.13-48,8.01,3.69,71.42,12.65,98.09,.95-.22,38,26.77,189.06,38.83,236.01,12.06,46.95,16.06,66.16,16.06,66.16,0,0-15.55,10.47-75.74,8.6-75.76-2.35-91.82-44.34-104.7-24.5-17.21,26.48,83.14,78.44,129.33,85.15,58.6,8.51,66.22,2.03,66.22,2.03,0,0,22.85,116.89,30.72,173.49,7.87,56.6,11.19,186.79,11.19,186.79Z"/><path class="layer2_svg" d="M1532.77,301.57c6.05-23.49-2.21-48.57-21.47-58.71,0,0-24.84,44.87,21.47,58.71"/><path class="layer2_svg" d="M633.07,334.03c12.2-20.97,11.04-47.35-4.74-62.33,0,0-36.08,36.45,4.74,62.33"/><path class="layer2_svg" d="M381.19,423.94s-9.24-39.48,21.88-53.25c10.19,23.63,5.29,47-21.88,53.25Z"/><path class="layer2_svg" d="M388.32,432.02c25.46,3.73,42.78,20.17,33.85,46.57,0,0-38.46-12.85-33.85-46.57"/><path class="layer2_svg" d="M183.99,436.08s-29.46-27.86-11.07-56.5c21.52,14.11,30.3,36.32,11.07,56.5Z"/></g><path class="layer2_svg" d="M1565.31,527.82c-2.83-1.38-11.09-6.36-11.09-6.36,0,0,.14-10.38,.59-15.76s-1.12-7.24-2.73-4.85c-1.61,2.39-3.99,8.81-3.99,8.81,0,0-.03-7.47-.8-9.21-.77-1.73-2.46-1.3-3.37,2.2-.91,3.5-2.21,8.41-2.81,11.18-3.13-1.73-14.5-6.16-19.43-5.26-1.6-1.21-4.67-1.11-5.96,.24-.53-3.25-.95-11.7,1.09-19.87-2.58,8.4-2.69,15.53-2.64,18.2,.05,2.67,.05,2.85,.05,2.85,0,0-.33,.28-.52,.54-1.19-3.17-3.33-9.65-4.38-19.45-.09,12.37,1.91,16.05,2.34,17.66,.44,1.61,1.04,3.14,1.04,3.14,0,0-1.72,4.19-2.02,7.94-.3,3.74,3.27,12.06,8.31,9.15,1.12,.6,1.48,.92,1.48,.92l.06,4.19s-3.27,1.57-4.03,1.99c-.76,.42-1.46,.5-1.86,1.28s-1.82,3.58-2.2,4.4c-.37,.82,.06,2.16,1.43-.23,1.38-2.38,1.7-3.46,1.7-3.46,0,0,4.14-2.11,5.12-2.43,.97-.32,1.6-.06,1.64-1.18s.14-3.69,.14-3.69c0,0,6.86,3.95,12.52,4.64-.85,2.01-1.16,3.6-.3,4.27,.86,.67,5.07,2.77,6.24,3.13,1.16,.37,1.73,.19,.26-.86-1.46-1.05-4.92-2.76-5.47-3s1.17-3.17,1.17-3.17c0,0,11.07,1.75,15.22-.95,.32-.22,.65-.04,.65-.04,0,0,.74,4.37,.79,5.05,.04,.68,1.69,2.28,3.03,3.73s5.05,4.21,6.25,3.24c1.2-.96-2.95-2.87-4.2-3.69-1.26-.82-3.92-2.91-3.94-3.53-.02-.62,.02-4.33,.02-4.33,0,0,6.16,1.64,10.37-1.08,4.21-2.73,3.07-5.02,.24-6.39Zm-20.35-11.3l-.33-.21s.71-10.19,1.31-12.94c0,0,.71,7.5,.74,9.04-.86,2.59-1.72,4.12-1.72,4.12Zm4.76,2.9s-.23-3.15-.37-3.94c-.14-.79,2.58-8.49,2.58-8.49,0,0-.43,12.21-.23,13.48-1.78-.98-1.99-1.05-1.99-1.05Z"/></svg>