<?xml version="1.0" encoding="UTF-8"?><svg id="Laag_1" xmlns="http://www.w3.org/2000/svg" viewBox="0 0 35.34 35.34"><defs><style>.tiktok_svg{fill:#ef6d25;}</style></defs><path class="tiktok_svg" d="M17.67,0C7.91,0,0,7.91,0,17.67s7.91,17.67,17.67,17.67,17.67-7.91,17.67-17.67S27.43,0,17.67,0Zm8.85,15.18s-2.99-.24-4.76-2.21v8.18c0,3.72-3.39,7.01-7.07,6.73-3.68-.28-6.49-2.98-6.49-6.71s2.98-7.31,8.02-6.81v3.59s-2.9-.58-4.07,1.58c-1.17,2.16,.37,4.67,2.57,4.8,2.19,.13,3.52-1.51,3.52-3.46V7.51h3.53s1.75,3.92,5.45,4.22l-.69,3.44Z"/></svg>