<?xml version="1.0" encoding="UTF-8"?><svg id="Laag_1" xmlns="http://www.w3.org/2000/svg" viewBox="0 0 151.7 144.52"><defs><style>.uspmushroom{fill:#83c60e;}</style></defs><path class="uspmushroom" d="M15.46,49.16S-.85,41.23,.03,29.42C.92,17.6,12.24,12.98,22.02,13.11,31.81,13.24,51.77-.75,66.05,.03c14.28,.78,29.35,14.4,42.83,18.5s35.83-4.56,40.98,6.05c5.16,10.61-1.92,11.07-5.02,17.62-3.11,6.54-4.36,15.33-3.17,23.5,1.19,8.16-.26,14.58-8.06,15.04s-8.26-5.95-7.21-10.44,3.24-5.88,1.12-9.19c-5.29,3.83-13.31,5.86-18.33,7.18-5.02,1.32-7.01,3.57-6.48,6.48s.88,6.13-2.47,6-2.25-5.29-1.32-6.88-1.37-3.22-2.91-2.38-2.69,2.12-2.29,8.46c.4,6.35,3.53,20.1-.44,20.89-3.97,.79-4.85-3.48-3.88-6.08s2.34-5.73,2.6-13.66,1.1-10.88-4.19-10.66c-5.29,.22-6.39-4.01-6.39-4.01,0,0-3.88,2.03-13.79-2.51-11.94,.97-14.37-3.31-14.37-3.31,0,0-6.7-2.69-9.17-2.01s-.7,4.36-2.53,5.29-4.96,.79-4.85-2.49-2.58-8.79-9.81-9.21c-5.73,7.78-10,22.16-6.41,38.32,2.12,9.52,9.85,20.67,16.92,26.63,7.07,5.96,11.83,3.91,11.83,3.91,0,0-3.44-5.68-1.78-10.71s5.88-4.36,6.81,5.62c.59-10.77,6.21-14.94,9.25-15.93,3.04-.99,7.14-1.29,2.45,5.6s-6.48,10.18-8.16,15.76c2.54,.32,6.41,1.51,6.41,1.51,0,0,1.59-5.09,7.8-7.97s8.66-1.84,9.02,.14-2.21,3.93-6.68,5.45c-4.46,1.52-5.16,4.4-5.16,4.4l2.64,1.32s2.64-3.25,6.57-2.71c3.92,.54,4.1,3.54-1.81,4.86,1.94,1.01,2.12,1.59,2.12,1.59,0,0,1.23-1.06,4.89-1.59,3.66-.53,5.11,2.03,1.81,3.57s-3.39,2.03-3.39,2.03c0,0,.93,.57,1.15,1.1,3.26-.66,6.7-.57,6.26,1.32s-4.98,2.95-10.14,3.92c-5.16,.97-6.35,4.19-6.35,4.19H17.13s-4.92-4.51-7.63-5.55-1.65-4.07-.69-4.14c-2.88-1.32-7.54-1.42-7.17-4s12.43-3.47,15.7,4.53c.46-1.92,1.32-3.11,1.32-3.11,0,0-6.84-6.68-12.86-7.97-6.02-1.29-5.16-4.46-3.83-5.65s7.24-.4,11.4,2.91c4.16,3.31,6.64,8.99,6.64,8.99,0,0,2.81-3.01-.76-11.14s-11.19-17.45-10.84-37.28,7.05-32.96,7.05-32.96Z"/></svg>