<?xml version="1.0" encoding="UTF-8"?><svg id="Laag_1" xmlns="http://www.w3.org/2000/svg" viewBox="0 0 141.98 184.22"><defs><style>.usppotion{fill:#83c60e;}</style></defs><path class="usppotion" d="M137.4,23.47c-1.4-3.64-5.25-7.94-7.72-9.63,1.57-2.66,2.57-4.42,1.85-6.31s.83-4.98,2.83-3.71c2.01,1.27,.79,3.19-.35,3.67s-1.43,1.07-1.21,2.28,1.52,1.23,3.25-.12c1.73-1.36,4.77-5.71-.01-8.75-4.78-3.03-7.81,2.35-8,4.35s1,3.42-1.01,6.72c-3.03-2.11-9.4-4.95-11.14-6.12-1.74-1.17-.49-2.38-2.25-2.21-1.76,.17-1.24,1.43-2.3,2.91s-5.7,12.18-6.72,15.01-3.15,8.45-3.15,8.45c0,0-3.27-.79-7.13,3.55-3.86,4.34-5.22,10.25-5.22,10.25,0,0-1.56-1.11-3.36,.3-1.8,1.41-1.47,7.37-1.46,8.17-1.43,1.97-8.95,11.93-8.95,11.93,0,0-2.91-.89-4.59,.88-1.68,1.77-1.01,3.03-1.01,3.03,0,0-2.73,3.57-9.66,4.4-10.72,1.29-33.17,5.36-46.65,19.79-4.18-1.34-6.45,1.29-6.62,3.46-.18,2.16-.71,8.29-.71,8.29,0,0-8.65,9.47-4.26,29.15-2.15,1.87-3.42,5.37,1.88,10.89-1.31,5.75-1.77,8.05-1.77,8.05,0,0,7.31,11.98,21.9,21.25,14.6,9.27,30.07,10.79,30.07,10.79l3.18-3.25s8.73,3.09,9.48-1.48c10.97-1.43,25.24-15.23,27.95-19.98,2.52,1.96,7.83-5.08,6.45-12.9,6.6-12.09,5.42-32.48,2.36-39.93-3.05-7.45-6.01-16.75-3.31-21.38,3.23,1.69,5.15-.56,5.85-1.67,.7-1.11-.49-3.94-2.26-4.92,2.79-4.2,3.93-5.99,3.93-5.99,0,0,2.82,1.31,4.19-.75s1.52-4.55,.63-6.46c.86-.8,1.46,.54,1.46,.54,0,0,2.69-2.54-.35-4.83,5.49-1.66,11.89-12.32,9.72-18.13,7.79-.86,17.08-12.86,18.49-15.44,1.4-2.58-2.81-3.22-4.3-4.17Zm-44.28,66.97c-.11,13.55,8.12,23.23,8.09,32.73-2.59-3.17-13.86-8.37-27.23-9.88-13.37-1.51-22.22-11.03-29.08-19.11-6.85-8.08-15.25-8.87-15.25-8.87,19.45-6.63,33.79-6.91,41.48-9.98,7.98-3.19,22.78-25.07,22.78-25.07l12.9,9.76s-13.57,16.87-13.68,30.42Z"/></svg>