<?xml version="1.0" standalone="no"?>
<!DOCTYPE svg PUBLIC "-//W3C//DTD SVG 20010904//EN"
 "http://www.w3.org/TR/2001/REC-SVG-20010904/DTD/svg10.dtd">
<svg version="1.0" xmlns="http://www.w3.org/2000/svg"
 width="1024.000000pt" height="1024.000000pt" viewBox="0 0 1024.000000 1024.000000"
 preserveAspectRatio="xMidYMid meet">
<metadata>
Created by potrace 1.14, written by Peter Selinger 2001-2017
</metadata>
<g transform="translate(0.000000,1024.000000) scale(0.100000,-0.100000)"
fill="#000000" stroke="none">
<path d="M4920 10100 c-843 -36 -1639 -274 -2370 -708 -681 -404 -1306 -1027
-1712 -1707 -102 -170 -125 -213 -203 -370 -517 -1050 -646 -2248 -364 -3394
154 -628 448 -1249 838 -1769 523 -699 1239 -1266 2020 -1601 222 -96 366
-146 668 -236 6 -2 17 -16 25 -31 13 -28 35 -34 30 -8 -4 20 12 18 192 -22
356 -79 699 -115 1090 -115 486 0 895 55 1346 180 310 86 561 182 860 328 158
78 242 123 410 223 79 47 283 184 369 249 40 31 85 65 100 76 290 218 681 616
931 950 473 633 790 1370 919 2143 51 307 65 483 65 832 0 349 -14 525 -65
832 -128 762 -444 1504 -906 2127 -276 371 -638 735 -1018 1022 -409 309 -906
572 -1405 741 -410 139 -903 234 -1315 253 -244 11 -334 12 -505 5z m3987
-2018 c11 -6 28 -23 37 -37 10 -15 23 -24 31 -22 16 7 34 -14 113 -123 117
-164 233 -357 331 -550 106 -210 119 -240 101 -240 -12 0 -129 87 -142 105 -4
5 -35 17 -70 26 -35 9 -88 26 -118 37 -38 14 -94 22 -183 27 -125 6 -129 6
-170 -19 -81 -49 -121 -95 -150 -179 -19 -52 -25 -83 -19 -95 5 -9 8 -57 7
-107 -1 -57 2 -97 10 -110 7 -11 13 -47 13 -80 0 -34 8 -77 18 -100 18 -43 22
-62 28 -140 3 -27 11 -84 19 -125 17 -91 17 -83 17 -250 -1 -281 -6 -363 -24
-405 -28 -61 -105 -156 -140 -170 -17 -7 -42 -25 -55 -39 -13 -14 -36 -28 -52
-31 -16 -4 -52 -20 -81 -36 -29 -16 -62 -29 -73 -29 -12 0 -25 -4 -30 -9 -10
-9 -65 -28 -101 -35 -10 -3 -32 -9 -47 -15 -16 -6 -33 -8 -39 -5 -6 4 -16 1
-22 -7 -32 -42 -231 -66 -359 -43 -45 7 -98 14 -117 14 -20 0 -44 6 -55 14
-11 7 -51 17 -88 21 -102 10 -338 103 -360 141 -4 8 -17 14 -27 14 -10 0 -22
4 -25 10 -3 5 -27 19 -53 30 -26 12 -79 43 -119 71 -39 27 -76 49 -81 49 -5 0
-32 23 -60 50 -42 43 -85 111 -106 170 -3 8 -10 23 -16 33 -5 9 -15 25 -20 35
-6 9 -15 28 -21 42 -22 47 -40 85 -55 110 -7 14 -14 37 -14 51 0 15 -7 32 -15
39 -8 7 -15 18 -15 25 0 7 -11 29 -25 49 -14 20 -28 49 -31 64 -4 15 -11 33
-17 40 -11 13 -3 33 39 102 41 67 80 145 93 188 8 23 18 42 22 42 4 0 21 -13
39 -30 18 -16 36 -30 41 -30 5 0 31 -16 59 -36 46 -33 153 -80 210 -91 14 -3
34 -13 45 -22 25 -22 70 -41 95 -41 10 0 25 -7 33 -15 8 -7 28 -17 43 -21 16
-3 61 -17 101 -31 39 -13 80 -23 90 -21 10 1 25 -2 33 -7 8 -5 46 -11 85 -12
38 -2 83 -7 100 -13 54 -17 282 -10 310 10 6 4 31 10 57 13 48 7 114 42 155
82 11 12 32 31 45 41 12 10 35 38 51 62 15 23 32 42 39 42 6 0 8 3 5 7 -4 3
-2 12 4 19 8 10 7 23 -1 49 -7 20 -9 46 -6 59 3 12 -6 67 -19 122 -14 54 -25
110 -25 124 0 14 -7 35 -15 47 -8 11 -17 40 -21 64 -4 24 -13 56 -20 70 -52
103 -86 280 -79 404 7 105 1 87 90 276 27 59 104 144 139 155 12 4 28 14 38
24 9 9 48 25 87 35 39 11 71 22 71 27 0 4 12 8 26 8 14 0 37 9 51 20 15 11 33
18 42 15 9 -2 22 -1 30 4 20 13 263 6 288 -7z m-3627 -252 c0 -5 -5 -10 -11
-10 -5 0 -7 5 -4 10 3 6 8 10 11 10 2 0 4 -4 4 -10z m2420 -95 c0 -8 -7 -15
-15 -15 -8 0 -15 7 -15 15 0 8 7 15 15 15 8 0 15 -7 15 -15z m-4117 -37 c10
-15 2 -56 -9 -46 -2 3 -9 20 -14 37 -10 34 4 40 23 9z m-1670 -445 c-18 -2
-48 -2 -65 0 -18 2 -4 4 32 4 36 0 50 -2 33 -4z m180 0 c-7 -2 -21 -2 -30 0
-10 3 -4 5 12 5 17 0 24 -2 18 -5z m-330 -10 c-7 -2 -19 -2 -25 0 -7 3 -2 5
12 5 14 0 19 -2 13 -5z m3657 -44 c0 -5 13 -9 28 -9 15 0 33 -5 39 -11 5 -5
37 -13 69 -16 39 -4 65 -12 77 -24 10 -11 22 -19 27 -19 6 0 10 -7 10 -15 0
-8 -4 -15 -10 -15 -5 0 -12 -11 -16 -25 -3 -14 -10 -25 -15 -25 -18 0 -88 -82
-94 -110 -3 -16 -22 -44 -41 -64 -19 -19 -34 -44 -34 -56 0 -11 -4 -20 -8 -20
-18 0 -52 -42 -52 -65 0 -14 -4 -25 -10 -25 -5 0 -10 -8 -10 -17 0 -10 -9 -29
-20 -43 -11 -14 -20 -30 -20 -37 0 -6 -10 -13 -22 -15 -27 -4 -35 -32 -17 -65
11 -20 10 -28 -4 -53 -9 -15 -15 -35 -12 -42 3 -8 -1 -21 -10 -28 -8 -7 -15
-21 -15 -31 0 -10 -5 -21 -11 -24 -6 -4 -9 -28 -8 -54 2 -39 -4 -59 -31 -107
-28 -50 -31 -62 -22 -86 9 -24 7 -30 -9 -38 -10 -6 -19 -20 -19 -30 0 -11 -4
-28 -9 -38 -11 -20 -24 -54 -25 -65 -1 -4 -6 -11 -11 -15 -19 -13 -47 -64 -42
-77 7 -16 -63 -29 -77 -15 -6 6 -18 10 -28 10 -10 0 -18 4 -18 9 0 6 -12 16
-27 23 -18 8 -28 21 -28 35 0 22 -31 63 -48 63 -6 0 -21 -9 -33 -20 -19 -19
-20 -25 -10 -54 22 -65 107 -156 145 -156 11 0 23 -4 26 -10 8 -13 52 -13 60
1 4 6 19 7 36 4 22 -5 29 -3 29 8 0 9 13 21 28 28 16 7 34 25 41 41 8 17 20
28 32 28 14 0 19 7 19 25 0 14 5 25 10 25 6 0 10 9 10 20 0 11 3 20 8 20 4 0
8 19 9 42 2 22 12 57 23 76 12 19 19 37 16 40 -3 2 2 18 10 34 8 16 13 37 10
46 -3 9 1 30 9 46 8 15 13 32 10 36 -3 4 2 13 10 20 9 8 13 21 9 36 -4 15 -2
24 6 24 6 0 10 6 7 13 -2 6 3 17 12 24 12 9 13 14 4 24 -7 7 -8 17 -3 28 5 9
17 32 25 51 9 19 26 53 40 75 13 22 24 50 24 61 1 12 12 29 26 38 14 9 25 23
25 32 0 8 7 17 16 21 8 3 29 34 45 69 25 51 36 65 64 74 34 11 45 26 45 60 0
10 9 21 19 25 18 5 43 35 66 79 5 11 22 23 37 27 31 8 74 -16 125 -70 16 -16
42 -35 57 -41 20 -7 26 -15 21 -29 -4 -14 1 -21 25 -29 16 -6 30 -16 30 -23 0
-7 17 -35 38 -63 58 -77 82 -120 82 -150 0 -15 7 -29 15 -32 8 -4 15 -17 15
-30 0 -14 7 -27 15 -30 8 -4 15 -14 15 -24 0 -11 5 -22 10 -25 6 -3 10 -17 10
-31 0 -17 8 -27 26 -34 l26 -10 -5 -99 c-4 -54 -3 -101 1 -105 3 -4 13 3 22
14 20 27 48 17 57 -19 3 -14 15 -38 26 -52 10 -15 20 -39 20 -55 1 -16 4 -31
7 -34 11 -10 60 -90 60 -97 0 -4 12 -33 27 -63 14 -30 30 -64 34 -75 4 -11 14
-36 23 -57 9 -20 16 -43 16 -51 0 -8 8 -25 19 -38 10 -13 28 -49 41 -79 12
-30 26 -64 31 -75 4 -11 22 -63 39 -115 17 -52 51 -141 76 -197 24 -56 44
-104 44 -107 0 -6 50 -120 105 -241 12 -27 28 -68 35 -90 7 -22 19 -54 27 -70
7 -17 11 -39 7 -48 -4 -12 2 -25 18 -40 16 -15 40 -73 77 -185 30 -89 58 -165
62 -168 5 -3 9 -15 9 -27 0 -22 19 -83 32 -102 3 -6 12 -39 19 -75 6 -36 18
-84 26 -108 7 -23 13 -51 13 -61 0 -24 -37 -56 -82 -71 -21 -6 -38 -18 -38
-26 0 -15 -56 -54 -79 -54 -8 0 -29 -16 -48 -35 -19 -19 -48 -42 -65 -51 -17
-9 -40 -25 -51 -35 -12 -10 -27 -19 -34 -19 -8 0 -16 -6 -19 -14 -3 -8 -22
-21 -42 -29 -20 -8 -58 -36 -84 -61 -26 -25 -52 -46 -57 -46 -6 0 -23 -12 -38
-26 -36 -34 -123 -74 -171 -80 -104 -12 -184 -25 -247 -39 -38 -9 -81 -18 -95
-20 -14 -2 -54 -9 -90 -14 -36 -6 -113 -13 -172 -17 l-108 -7 -2 49 c-1 27 -3
65 -5 84 -2 19 -5 96 -7 170 -3 74 -7 176 -11 225 -4 50 -11 149 -15 220 -11
176 -38 401 -53 432 -9 21 -8 26 6 34 9 6 17 20 17 32 0 13 7 33 16 45 12 17
14 35 9 68 -5 36 -3 44 9 44 9 0 16 4 16 9 0 5 11 12 25 15 14 4 45 27 70 52
37 37 44 48 34 60 -8 10 -8 14 0 14 6 0 21 11 33 26 16 17 29 23 44 20 14 -4
24 0 28 10 4 10 13 13 25 9 27 -8 71 5 71 21 0 8 6 14 14 14 7 0 16 8 19 19 2
10 17 21 33 25 46 12 72 33 94 79 12 23 34 63 49 88 16 26 35 73 41 105 7 33
18 75 25 94 27 75 35 119 40 234 3 65 8 122 10 127 3 4 0 20 -7 36 -13 33 -14
36 -26 173 -16 167 -21 204 -42 261 -15 44 -23 54 -42 54 -18 0 -23 -5 -21
-25 1 -14 5 -59 8 -100 4 -41 8 -104 9 -140 2 -36 8 -82 14 -103 7 -27 7 -48
0 -69 -7 -20 -7 -41 -1 -62 10 -33 3 -169 -9 -181 -13 -14 -65 13 -109 56 -24
24 -62 50 -84 58 -22 7 -52 22 -67 32 -14 11 -31 19 -37 19 -6 0 -46 9 -89 21
-271 74 -293 79 -352 79 -44 0 -50 3 -56 24 -11 46 19 257 53 364 7 23 13 52
13 63 0 11 7 34 16 50 8 17 14 45 12 62 -3 30 -4 31 -18 14 -8 -10 -22 -26
-30 -35 -23 -26 -63 -113 -65 -142 0 -8 -9 -41 -19 -73 -10 -32 -15 -68 -12
-79 2 -12 -1 -33 -8 -47 -7 -14 -16 -69 -20 -121 -4 -52 -12 -116 -18 -141 -8
-33 -8 -62 -1 -100 13 -66 10 -74 -35 -92 -41 -16 -88 -59 -97 -87 -3 -11 -14
-22 -24 -25 -11 -3 -21 -13 -25 -23 -6 -17 -27 -53 -36 -62 -21 -19 -52 -91
-57 -132 -3 -27 -10 -51 -14 -54 -5 -3 -4 -14 2 -26 6 -11 9 -28 6 -39 -3 -10
1 -26 9 -36 8 -11 11 -31 7 -55 -4 -30 -1 -43 20 -68 14 -16 29 -40 33 -52 4
-13 13 -27 20 -33 7 -5 14 -19 16 -29 4 -24 86 -84 116 -85 12 -1 22 -5 22
-11 0 -12 65 -40 95 -40 22 0 22 -3 18 -62 -4 -56 -2 -67 22 -98 39 -53 106
-102 131 -97 21 4 21 2 19 -117 -1 -67 2 -141 6 -166 5 -25 11 -95 13 -157 2
-61 7 -116 10 -121 3 -6 8 -126 10 -268 2 -143 5 -263 6 -269 1 -5 2 -21 1
-33 -1 -23 -2 -24 -83 -18 -156 10 -214 26 -282 75 -39 28 -52 32 -66 23 -11
-6 -29 -8 -46 -3 -26 7 -30 13 -37 62 -4 30 -10 65 -12 79 -7 52 -53 187 -71
211 -10 15 -38 96 -48 142 -4 15 -11 27 -16 27 -6 0 -10 9 -10 20 0 10 -9 24
-20 30 -11 6 -20 18 -20 28 0 18 -42 66 -79 92 -11 8 -21 20 -21 27 0 8 -11
19 -25 25 -14 6 -25 15 -25 20 0 4 -7 8 -15 8 -9 0 -12 6 -8 16 4 10 -1 17
-16 21 -21 5 -30 33 -11 33 6 0 28 18 49 40 21 22 43 40 49 40 7 0 12 5 12 12
0 17 144 168 161 168 4 0 10 -14 14 -30 4 -20 13 -30 25 -30 23 0 33 40 29
123 -2 35 2 71 9 84 18 32 15 52 -7 46 -15 -4 -19 3 -25 35 -3 22 -12 53 -20
69 -8 15 -26 53 -39 83 -13 30 -32 72 -41 92 -9 20 -30 46 -46 58 -17 12 -30
28 -30 36 0 17 17 19 23 2 9 -24 24 6 35 67 16 86 13 219 -5 284 -8 31 -17 66
-20 79 -8 32 -94 106 -141 120 -85 26 -222 7 -279 -38 -14 -11 -31 -20 -38
-20 -6 0 -17 -10 -24 -22 -25 -47 -38 -68 -56 -88 -11 -12 -16 -29 -13 -45 3
-14 1 -28 -4 -31 -5 -3 -7 -12 -4 -19 2 -7 1 -26 -3 -41 l-7 -27 -62 64 -61
64 -65 0 c-39 0 -70 -5 -77 -12 -19 -19 -26 -16 -32 15 -44 212 -39 197 -70
200 -25 3 -27 1 -28 -35 -3 -65 -4 -71 -11 -78 -4 -4 -5 -33 -2 -64 7 -66 -8
-107 -58 -162 -74 -81 -218 -67 -315 31 -47 47 -52 69 -28 127 8 19 15 43 15
53 0 27 22 64 55 92 22 19 29 34 29 61 0 28 5 38 24 47 16 7 22 16 18 26 -3 9
1 25 9 37 8 12 15 31 15 43 0 12 9 32 19 45 16 20 23 22 39 13 10 -7 30 -10
45 -7 17 3 40 -3 64 -17 49 -29 353 -75 353 -53 0 5 16 15 35 23 19 8 35 19
35 26 0 6 13 14 30 17 39 8 80 35 80 53 0 8 7 14 15 14 8 0 15 4 15 10 0 10
47 60 57 60 3 0 14 11 25 25 11 14 29 25 40 25 14 0 18 5 14 15 -3 8 0 15 6
15 13 0 63 52 60 63 -1 4 5 10 13 13 8 4 15 15 15 25 0 10 9 28 20 39 11 11
20 24 20 30 0 5 9 14 21 20 12 7 18 17 15 27 -3 8 2 22 12 31 11 10 25 37 33
62 7 25 21 54 31 64 10 11 18 28 18 37 0 23 69 158 92 181 9 9 20 29 24 42 3
14 21 37 40 51 24 19 33 32 29 44 -7 24 15 64 64 117 23 25 41 51 41 59 0 7 8
20 18 27 11 7 24 23 31 36 6 12 19 22 28 22 11 0 14 7 11 25 -4 19 -1 25 13
25 11 0 19 6 19 14 0 8 7 17 15 20 9 3 15 13 13 23 -2 10 7 22 21 29 13 7 28
20 33 28 5 9 19 17 31 17 17 1 18 2 5 6 -18 5 -23 15 -12 26 8 8 34 -3 34 -14z
m-3270 -10 c19 -5 86 -12 149 -14 63 -2 119 -9 125 -15 5 -5 21 -10 36 -10 14
0 56 -11 94 -24 74 -25 77 -29 109 -141 8 -26 34 -64 77 -108 61 -64 88 -109
89 -149 1 -23 2 -23 -50 6 -24 13 -82 34 -129 46 -47 12 -99 26 -116 31 -17 5
-38 7 -47 3 -8 -3 -25 -1 -36 5 -12 7 -87 11 -188 11 -151 0 -175 -2 -233 -23
-36 -13 -96 -47 -135 -76 -109 -83 -122 -102 -123 -179 -2 -65 23 -120 66
-145 39 -22 147 -57 178 -57 12 0 26 -5 29 -10 4 -6 18 -10 33 -10 44 1 186
-21 197 -30 6 -4 30 -11 55 -15 25 -4 52 -13 60 -21 9 -7 36 -14 60 -15 25 -1
59 -9 75 -18 17 -9 41 -18 55 -21 14 -3 29 -15 35 -28 5 -12 16 -22 23 -22 24
0 113 -83 128 -120 8 -19 35 -64 58 -100 38 -57 44 -72 45 -124 1 -32 4 -63 7
-68 7 -10 -10 -118 -29 -187 -7 -24 -23 -52 -36 -62 -14 -11 -21 -25 -17 -34
3 -9 -1 -18 -9 -21 -8 -4 -15 -12 -15 -19 0 -6 -9 -22 -20 -35 -11 -13 -20
-29 -20 -35 0 -7 -19 -33 -42 -58 -24 -24 -56 -65 -71 -91 -16 -25 -33 -46
-37 -46 -5 0 -40 -29 -77 -65 -37 -36 -73 -65 -79 -65 -7 0 -38 -28 -71 -62
-32 -34 -76 -78 -97 -97 -21 -20 -50 -58 -63 -86 -13 -27 -33 -66 -45 -85 -25
-42 -29 -64 -30 -195 -2 -125 6 -190 27 -222 24 -35 116 -129 141 -141 32 -17
107 -42 125 -42 9 0 22 -7 29 -15 7 -8 24 -15 39 -15 36 0 176 -8 176 -10 0
-6 75 -5 97 1 37 10 255 -9 292 -25 17 -8 55 -17 85 -21 54 -6 131 -38 131
-54 0 -5 -16 -19 -35 -32 -27 -18 -34 -29 -30 -45 5 -23 -17 -50 -34 -40 -5 4
-22 -5 -37 -19 -15 -14 -31 -25 -35 -25 -5 0 -31 -16 -58 -35 -26 -19 -53 -35
-58 -35 -19 0 -133 -81 -155 -110 -27 -37 -41 -38 -67 -4 l-20 25 -40 -27
c-34 -22 -47 -25 -78 -20 -21 4 -50 9 -65 11 -15 3 -44 11 -64 20 -20 8 -54
15 -75 15 -21 0 -41 4 -44 10 -3 6 -41 10 -83 10 -42 1 -95 7 -117 15 -22 8
-57 15 -77 15 -52 0 -202 38 -265 66 -28 13 -57 24 -64 24 -17 0 -118 83 -119
98 0 6 -3 12 -7 12 -17 0 -123 120 -123 139 0 7 -10 31 -22 54 -40 76 -60 165
-58 262 1 81 3 92 28 123 15 19 35 49 45 68 9 19 26 40 37 46 11 7 20 23 20
35 0 13 4 23 9 23 4 0 29 18 54 40 25 22 52 40 61 40 9 0 21 11 25 24 11 29
81 85 119 95 15 4 27 14 27 22 1 21 70 84 130 119 35 20 55 39 59 55 4 15 18
30 32 35 14 6 28 19 31 29 2 10 18 28 34 40 16 12 29 25 29 30 0 5 13 23 29
40 16 17 32 43 36 58 6 26 15 38 73 97 12 13 22 30 22 37 0 8 8 34 17 59 8 25
19 90 23 144 8 99 8 100 -25 166 -32 62 -37 67 -102 97 -93 44 -174 65 -241
62 -85 -4 -388 11 -457 22 -110 17 -252 69 -291 105 -19 19 -41 37 -47 41 -16
10 -77 100 -77 114 0 5 -7 21 -16 34 -9 14 -18 51 -21 82 -3 32 -9 62 -14 67
-12 14 2 167 19 201 17 34 63 98 74 103 5 2 5 14 2 27 -4 16 1 30 15 44 12 12
21 27 21 35 0 8 8 21 19 28 10 7 26 28 35 46 9 17 20 32 24 32 4 0 34 26 67
57 33 31 74 66 90 77 17 12 47 34 68 50 20 15 50 29 65 30 15 1 40 9 54 18 22
15 114 37 173 42 11 1 32 6 48 10 18 5 32 4 42 -4 12 -10 18 -10 30 0 10 8 30
11 58 7 24 -3 57 -2 73 3 16 4 36 6 44 3 8 -3 31 -9 50 -14z m6710 -19 c0 -5
-7 -10 -15 -10 -8 0 -15 5 -15 10 0 6 7 10 15 10 8 0 15 -4 15 -10z m-6810
-450 c-20 -13 -40 -13 -40 0 0 6 12 10 28 10 21 0 24 -2 12 -10z m3541 -1027
c30 -9 63 -15 75 -14 11 1 26 -4 33 -12 9 -12 8 -16 -7 -19 -24 -7 -38 -79
-21 -109 14 -27 3 -37 -23 -20 -12 7 -48 16 -80 18 l-58 6 -11 41 c-16 54 -12
96 9 112 22 17 19 17 83 -3z m-815 -208 c27 -6 73 -51 74 -73 0 -7 9 -33 20
-57 17 -37 18 -48 8 -64 -9 -15 -9 -23 1 -35 7 -8 9 -21 5 -27 -4 -7 -9 -40
-12 -73 -2 -34 -6 -63 -8 -65 -8 -8 -54 42 -54 59 0 20 -38 54 -91 81 -34 19
-49 20 -134 14 -82 -6 -95 -5 -95 8 0 9 5 19 10 22 6 3 10 24 10 46 0 25 7 46
19 58 10 10 22 28 25 39 4 10 25 27 49 37 107 46 99 45 173 30z m1404 -5 c13
-11 33 -20 45 -20 13 0 28 -7 35 -15 16 -20 8 -119 -12 -142 -23 -27 -41 -102
-41 -166 0 -55 -2 -59 -31 -74 -17 -9 -33 -19 -36 -22 -14 -17 -88 -61 -114
-67 -25 -6 -27 -4 -22 13 9 29 17 100 20 170 1 34 7 68 14 75 6 6 12 19 12 27
0 8 6 22 13 30 18 21 37 86 41 141 2 25 4 51 5 58 2 19 45 14 71 -8z m-734
-35 c7 -19 14 -47 14 -62 0 -15 14 -52 30 -82 17 -30 30 -66 30 -81 0 -15 18
-63 40 -106 22 -43 40 -84 40 -91 0 -6 14 -20 30 -30 17 -9 30 -21 30 -25 0
-4 9 -8 20 -8 11 0 20 -6 20 -14 0 -15 37 -43 83 -63 15 -7 27 -17 27 -23 0
-17 -32 -62 -70 -99 l-35 -34 -118 7 c-90 4 -133 12 -175 29 -65 26 -151 86
-152 105 0 7 -9 20 -19 29 -11 9 -18 20 -15 25 3 4 -3 19 -12 33 -9 14 -13 25
-9 25 4 0 3 6 -3 13 -10 11 -17 70 -12 92 2 6 4 24 5 40 6 85 33 165 55 165 6
0 10 7 10 16 0 8 13 26 29 39 16 14 31 37 34 52 8 35 15 44 52 65 44 24 54 22
71 -17z m143 5 c23 -6 49 -19 58 -29 10 -10 28 -22 41 -26 15 -4 25 -17 29
-36 3 -16 12 -34 19 -40 8 -6 14 -18 14 -25 0 -23 92 -134 111 -134 10 0 23
-9 29 -20 6 -11 20 -20 31 -20 14 0 18 -4 12 -12 -4 -7 -8 -30 -9 -51 -1 -21
-10 -47 -19 -56 -8 -10 -15 -24 -13 -32 2 -7 -4 -14 -12 -16 -20 -4 -90 24
-90 36 0 5 -11 12 -24 15 -40 10 -135 123 -173 206 -19 41 -41 87 -49 103 -17
31 -34 125 -27 145 3 7 11 11 19 8 7 -3 31 -10 53 -16z m-1344 -209 c3 -11 13
-22 21 -25 21 -8 8 -26 -19 -26 -23 0 -48 -22 -60 -53 -3 -9 -12 -17 -19 -17
-31 -1 -62 -51 -67 -112 -1 -12 -29 -9 -37 4 -4 6 -7 46 -7 88 l0 76 42 42
c38 38 48 42 91 42 39 0 50 -4 55 -19z m426 -98 c6 -7 17 -13 23 -13 14 0 146
-134 146 -148 0 -6 6 -17 13 -24 61 -61 124 -171 130 -228 3 -25 8 -62 12 -83
7 -34 5 -39 -14 -44 -14 -3 -23 -16 -27 -39 -4 -20 -12 -34 -21 -34 -17 0 -60
-45 -68 -71 -4 -11 -12 -19 -20 -19 -14 0 -101 -104 -164 -197 -24 -35 -64
-82 -91 -105 -26 -24 -55 -57 -64 -75 -8 -17 -20 -33 -26 -35 -6 -2 -12 -11
-13 -19 -2 -9 -10 -24 -20 -33 -9 -10 -17 -24 -17 -33 0 -20 -29 -69 -62 -107
-16 -17 -28 -35 -28 -41 0 -6 -6 -20 -14 -30 -13 -18 -13 -17 -13 7 0 14 -13
58 -28 97 -15 40 -25 81 -22 91 5 18 -13 92 -34 145 -14 37 -20 78 -26 174 -2
53 -11 111 -19 130 -9 21 -16 82 -19 152 -2 65 -8 127 -14 137 -6 11 -7 22 -4
26 4 3 7 39 8 79 1 39 6 81 13 93 6 11 8 30 5 42 -3 15 0 24 11 28 9 3 16 17
16 31 0 14 13 36 32 54 34 30 48 36 48 19 0 -12 34 6 62 33 12 12 34 17 71 17
30 0 61 6 74 15 12 8 28 12 37 9 8 -3 23 -1 33 5 25 14 81 11 94 -6z m-903
-65 c6 -7 13 -31 17 -53 4 -22 23 -59 41 -82 19 -23 34 -46 34 -52 0 -5 16
-15 35 -22 19 -7 35 -17 35 -21 0 -17 66 -48 102 -48 32 0 38 -4 47 -32 10
-30 8 -184 -2 -195 -8 -8 -71 24 -92 46 -11 12 -34 37 -52 54 -18 18 -46 59
-63 92 -17 33 -36 63 -42 66 -11 7 -30 39 -48 79 -7 14 -23 48 -37 76 -18 36
-24 59 -19 78 7 28 27 34 44 14z m1872 -471 c0 -33 -19 -95 -31 -103 -6 -4
-22 6 -35 22 -26 30 -27 81 -4 109 17 21 70 -1 70 -28z m-2243 -689 c-3 -8 -6
-5 -6 6 -1 11 2 17 5 13 3 -3 4 -12 1 -19z m-13 -21 c15 -11 16 -18 8 -34 -6
-11 -9 -29 -6 -40 3 -11 -1 -25 -10 -32 -10 -8 -13 -22 -10 -40 4 -21 1 -30
-11 -35 -11 -4 -15 -12 -11 -23 5 -11 -5 -28 -28 -52 -19 -20 -36 -45 -38 -55
-2 -13 -15 -23 -38 -29 -19 -5 -39 -15 -43 -23 -4 -8 -21 -14 -37 -14 -16 0
-31 -4 -34 -9 -3 -4 -34 -14 -68 -21 -35 -6 -69 -16 -75 -22 -19 -15 -152 -36
-214 -34 -30 2 -64 9 -76 16 -30 19 -46 80 -20 80 6 0 26 7 42 16 17 9 48 20
70 24 63 12 147 46 157 64 5 9 16 16 24 16 8 0 37 16 64 35 27 19 57 35 65 35
8 0 15 4 15 8 0 14 36 52 49 52 13 0 58 27 79 47 7 7 17 13 22 13 5 0 24 16
42 35 36 37 54 42 82 22z m3957 -149 c26 -28 49 -79 49 -111 0 -14 7 -30 16
-38 9 -8 13 -21 10 -35 -4 -16 0 -27 14 -37 11 -7 17 -17 14 -20 -8 -8 26
-107 43 -128 8 -9 11 -23 8 -31 -6 -14 25 -124 46 -160 5 -10 9 -29 9 -42 0
-14 4 -27 9 -30 14 -9 22 -66 11 -85 -9 -17 -113 -101 -125 -101 -3 0 -27 -15
-53 -33 -74 -50 -256 -137 -289 -137 -11 0 -26 -7 -33 -15 -7 -8 -20 -15 -29
-15 -21 0 -168 -61 -201 -82 -14 -9 -46 -22 -72 -29 -27 -6 -48 -15 -48 -20 0
-5 -13 -9 -28 -9 -15 0 -32 -4 -38 -8 -8 -8 -105 -39 -194 -62 -19 -5 -57 -11
-84 -14 -27 -4 -54 -10 -60 -15 -7 -6 -42 -15 -79 -21 -36 -5 -79 -15 -93 -21
-29 -10 -84 -3 -84 11 0 22 21 58 54 92 25 26 36 46 36 68 0 20 5 30 15 30 8
0 18 12 21 28 4 15 13 34 20 43 8 8 15 30 17 49 3 22 13 40 31 52 16 13 26 29
26 46 0 14 6 33 13 41 8 9 20 32 27 51 8 19 16 37 19 40 21 18 71 91 71 103 0
7 7 22 15 33 8 10 15 25 15 33 0 21 40 61 60 61 9 0 20 4 26 9 27 25 168 90
216 100 42 9 60 19 77 41 13 19 31 30 45 30 15 0 26 7 29 20 3 11 12 20 21 20
31 0 126 75 126 99 0 19 32 41 59 41 18 0 35 10 51 30 14 16 33 29 43 30 10 0
16 4 13 9 -3 5 1 14 9 21 8 7 15 18 15 24 1 11 67 66 81 66 5 0 18 -10 30 -22z
m-2065 -524 c27 -18 58 -29 99 -33 33 -4 66 -10 73 -15 7 -4 28 -40 48 -79 19
-40 53 -101 75 -137 22 -36 44 -74 49 -85 6 -11 14 -27 18 -35 5 -8 13 -24 19
-35 5 -11 21 -40 35 -65 13 -25 28 -65 32 -89 7 -43 6 -43 -20 -37 -14 4 -38
9 -53 11 -14 2 -42 7 -62 10 -25 4 -38 12 -42 25 -3 12 -14 20 -26 20 -11 0
-28 12 -37 26 -14 20 -23 25 -43 20 -14 -2 -52 2 -85 10 -40 11 -96 14 -182
12 -141 -3 -142 -3 -99 73 14 24 26 49 29 54 7 19 27 100 33 130 3 17 14 39
24 50 13 15 18 36 18 75 -1 79 1 93 13 107 16 20 41 16 84 -13z m1134 0 c0 -4
-12 -18 -26 -33 -42 -42 -104 -129 -104 -145 0 -8 -13 -30 -30 -48 -16 -18
-30 -42 -30 -54 0 -12 -7 -24 -15 -27 -14 -6 -55 -81 -55 -101 0 -5 -7 -17
-16 -27 -8 -9 -16 -23 -18 -31 -1 -8 -12 -31 -24 -52 -12 -20 -20 -41 -17 -45
2 -5 -13 -26 -35 -47 -22 -21 -40 -46 -41 -54 0 -8 -9 -28 -20 -45 -20 -32
-24 -39 -33 -67 -3 -10 -10 -18 -16 -18 -6 0 -13 8 -16 18 -4 9 -15 36 -25 59
-10 24 -19 47 -19 52 0 5 -6 14 -14 20 -7 6 -16 29 -20 50 -3 21 -15 49 -26
63 -21 28 -26 72 -35 303 l-4 131 28 11 c20 7 46 7 87 0 42 -7 59 -7 62 2 4
13 47 14 77 2 12 -5 33 -3 53 5 18 7 39 11 46 8 7 -3 16 2 19 10 5 11 20 16
50 16 24 0 47 3 51 7 4 4 28 9 54 10 25 2 56 10 67 18 21 15 45 19 45 9z
m-727 -85 l37 -10 1 -57 c0 -31 2 -87 4 -124 4 -74 -8 -88 -30 -35 -7 17 -22
43 -33 57 -10 14 -29 44 -41 68 -12 23 -25 42 -30 42 -8 0 -41 54 -41 67 0 7
98 2 133 -8z m-1619 -278 c3 -4 19 -11 35 -14 16 -4 40 -17 54 -30 13 -14 42
-28 65 -32 27 -4 42 -12 42 -21 0 -17 24 -27 100 -44 110 -24 270 -89 270
-110 0 -5 -19 -15 -42 -21 -24 -7 -48 -18 -54 -25 -6 -7 -35 -25 -65 -40 -50
-25 -149 -114 -149 -134 0 -5 -9 -12 -20 -15 -11 -3 -23 -17 -26 -31 -3 -13
-13 -24 -21 -24 -9 0 -13 -6 -10 -14 3 -7 -9 -28 -26 -46 l-31 -32 -10 28 c-5
16 -13 35 -19 42 -5 7 -7 15 -4 18 3 4 0 12 -7 19 -7 7 -20 59 -30 115 -9 56
-23 114 -30 128 -8 15 -17 47 -21 72 -4 25 -13 70 -20 100 -28 116 -29 120 -6
120 11 0 22 -4 25 -9z m2316 -441 c0 -5 -9 -10 -21 -10 -11 0 -17 5 -14 10 3
6 13 10 21 10 8 0 14 -4 14 -10z m-353 -50 c14 -11 37 -20 50 -20 13 0 33 -5
44 -11 11 -5 53 -12 94 -13 40 -2 78 -6 83 -10 6 -3 14 -2 17 4 5 8 14 6 30
-4 19 -13 34 -14 75 -6 36 7 58 6 72 -1 11 -6 35 -8 53 -5 24 5 34 2 38 -8 4
-11 19 -14 54 -11 26 2 67 -3 89 -11 23 -8 64 -17 90 -20 27 -4 57 -11 68 -16
23 -12 45 -16 168 -31 53 -7 100 -15 104 -19 4 -5 29 -8 55 -8 46 0 70 -12 49
-25 -21 -13 -8 -24 36 -31 59 -9 46 -19 -41 -32 -38 -5 -83 -16 -100 -23 -37
-15 -31 -14 -85 -23 -50 -9 -135 -34 -164 -48 -10 -5 -39 -12 -64 -15 -25 -2
-66 -15 -91 -28 -30 -16 -66 -25 -101 -26 -30 -1 -71 -10 -90 -20 -47 -25
-145 -55 -203 -64 l-47 -6 20 33 c13 21 20 50 20 83 0 42 -7 61 -41 113 -22
34 -45 62 -50 62 -5 0 -14 11 -19 25 -5 14 -15 25 -22 25 -7 0 -39 24 -70 53
-31 28 -79 72 -107 97 -47 41 -61 60 -45 60 3 0 17 -9 31 -20z m630 14 c-3 -3
-12 -4 -19 -1 -8 3 -5 6 6 6 11 1 17 -2 13 -5z m578 -119 c22 -8 56 -14 75
-15 19 0 46 -7 60 -15 22 -12 23 -14 7 -20 -22 -9 -73 1 -111 20 -15 8 -43 15
-61 15 -39 0 -65 8 -65 21 0 14 50 11 95 -6z m-3282 -81 c21 -4 36 -12 34 -17
-2 -7 -48 -12 -120 -12 -65 -1 -120 -5 -124 -9 -10 -9 -113 -7 -113 3 0 5 37
14 83 20 155 21 190 23 240 15z m133 -125 c2 -4 -7 -30 -20 -56 -27 -50 -56
-131 -81 -220 -8 -29 -24 -72 -35 -96 -12 -25 -22 -57 -24 -72 -2 -15 -7 -30
-12 -33 -14 -11 -40 -114 -73 -297 -4 -23 -11 -46 -15 -53 -4 -7 -9 -31 -12
-54 -2 -23 -8 -44 -13 -48 -6 -3 -12 -57 -13 -119 -2 -93 -5 -110 -14 -90 -16
33 -40 130 -69 274 -9 44 -21 94 -26 111 -5 17 -9 40 -9 51 0 20 -5 38 -46
178 -10 33 -17 63 -16 67 1 4 -3 20 -9 35 -6 15 -14 46 -19 68 -4 22 -20 71
-34 110 -14 38 -26 79 -26 90 0 11 -9 35 -20 53 l-20 32 26 10 c14 6 36 10 49
10 13 0 25 5 27 10 2 6 26 12 53 14 28 2 50 4 50 5 0 1 18 4 40 6 196 22 352
28 361 14z m-646 -150 c0 -10 -4 -19 -10 -19 -5 0 -10 12 -10 26 0 14 4 23 10
19 6 -3 10 -15 10 -26z m2762 -244 c13 -19 27 -35 32 -35 10 0 25 -13 103 -89
29 -28 56 -51 61 -51 4 0 43 -34 85 -75 42 -41 79 -75 82 -75 10 0 54 -54 55
-67 0 -6 16 -21 35 -33 24 -15 35 -29 35 -46 0 -23 -2 -24 -74 -24 -40 0 -86
-4 -102 -10 -16 -5 -63 -11 -104 -13 -41 -2 -82 -7 -90 -10 -8 -3 -47 -7 -85
-10 -39 -2 -79 -9 -90 -15 -11 -6 -55 -16 -97 -21 -42 -6 -96 -17 -120 -26
-78 -27 -74 -33 -88 139 -6 85 -10 159 -7 163 3 5 1 29 -4 52 -9 39 -7 47 12
67 12 13 33 24 48 26 14 2 25 9 24 16 -2 6 5 12 15 12 11 0 27 9 37 20 10 11
24 20 30 20 7 0 15 9 18 20 3 12 11 18 20 15 8 -4 21 4 31 19 10 16 26 26 40
26 12 0 31 9 41 20 25 27 31 26 57 -15z m-430 -287 c1 -29 3 -73 4 -98 0 -25
2 -49 4 -55 2 -9 2 -63 0 -155 0 -34 -2 -36 -58 -53 -31 -9 -69 -17 -84 -17
-15 0 -29 -4 -32 -9 -3 -4 -28 -11 -56 -14 -28 -3 -106 -19 -173 -36 -118 -28
-155 -37 -357 -80 -224 -47 -416 -94 -425 -102 -5 -5 -18 -9 -29 -9 -18 0 -18
1 4 25 13 14 29 25 36 25 7 0 15 8 19 19 4 12 19 21 44 25 55 8 118 47 113 69
-2 12 3 17 16 17 23 0 82 31 82 43 0 4 8 7 18 7 9 0 34 14 54 30 20 17 43 28
50 25 8 -3 25 5 39 17 14 13 38 29 55 36 77 36 156 80 169 96 14 17 79 46 103
46 12 0 27 8 34 18 7 10 35 24 61 32 27 7 51 19 54 27 3 7 16 13 28 13 13 0
26 4 30 9 10 18 96 71 113 71 9 0 26 7 36 15 35 27 46 19 48 -37z m892 -283
c7 -18 -16 -30 -40 -21 -13 5 -14 9 -4 21 16 19 36 19 44 0z m-2984 -143 c0
-13 5 -32 11 -43 12 -23 18 -99 7 -99 -13 0 -48 131 -47 179 l1 46 13 -30 c8
-16 14 -40 15 -53z m860 -211 c0 -9 -34 -21 -60 -21 -11 1 -10 4 4 15 22 16
56 20 56 6z"/>
<path d="M4645 4839 c-21 -10 -40 -43 -56 -93 -6 -20 -4 -37 7 -57 19 -38 50
-38 57 -1 4 18 15 31 35 38 23 9 33 21 41 50 18 66 16 74 -26 73 -21 0 -47 -5
-58 -10z"/>
</g>
</svg>
