<?xml version="1.0" encoding="UTF-8"?><svg id="Laag_1" xmlns="http://www.w3.org/2000/svg" viewBox="0 0 1920 359.6"><defs><style>.layer4_svg{fill:#4D45BA;}</style></defs><path class="layer4_svg" d="M1071.86,359.6H0V64.92c20.58,2.2,184.24-19.39,180.56-8,28.66,2.2,35-8.64,35-8.64,0,0,13.96,2.57,8.45,12.49,14.7-4.13,18.19-.73,18.19-.73,2.39,9.92-6.99,15.93-6.99,15.93,5.3-3.19,19.18-6.64,28.85,.61-8.45,14.7-24.62,13.59-24.62,13.59,0,0,20.58,14.33,19.84,39.68,14.7-16.9,51.07-5.88,62.09,9.92,2.2-29.03,12.86-37.11,12.86-37.11,0,0,16.53,12.12,17.27,43.72,10.66-3.31,15.8,0,15.8,0,0,0-10.29-6.25-6.98-21.68,12.12,7.35,16.53,11.02,19.11,21.68,4.04-5.88,8.45-4.41,8.45-4.41,0,0-13.96-19.11,0-35.27,13.59,2.94,16.9,16.17,16.9,16.17,0,0,.73-16.9,7.72-19.84,11.76,2.2,13.23,20.58,13.23,20.58,0,0,16.9-28.66,44.46-5.33-.73-28.47,12.12-33.99,12.12-33.99,0,0,14.33,8.08,13.23,25.35,9.92-18.74,24.98-14.7,24.98-14.7,0,0,5.51,18.74-2.2,38.95,13.59-7.72,32.33,.73,35.27,5.51,7.35-3.67,13.23-1.84,13.23-1.84,0,0-18.74-6.61-20.58-30.5,12.86-9.92,40.66,6.61,44.58,13.72,6.61-9.06,24.98-5.39,28.66,1.71,4.41-10.53,20.82-15.43,28.9-9.8,7.59-10.78,21.31-13.72,28.17-13.23,1.96,6.61-3.92,14.45-3.92,14.45,0,0,12.49-6.31,20.58-1.9-.92,12.49-10.66,18.92-10.66,18.92,0,0,16.9-14.15,38.39-8.08-11.76-9.37-8.08-29.03-8.08-29.03,0,0,10.1-2.2,15.98,4.59-4.04-13.78,1.1-21.86,1.1-21.86,0,0,18,.55,21.86,22.96,.37-15.62,44.09-11.76,46.11,7.35,0,0,24.11-3.7,29.37,14.92,0,0,6.68-12.89,19.1-16.23,7.16,7.16,2.86,22.44,2.86,22.44,0,0,43.05-11.54,63.82,9.95-5.01-12.18,10.19-23.8,23.8-23.8-12.89-4.3-7.88-23.64-7.88-23.64,0,0,8.59-1.85,20.77,5.52-20.77-18.41-11.92-28.35-11.92-28.35,0,0,19.09-5.82,23.38,4.92-5.73-22.2,12.89-38.68,31.51-38.68-9.31-22.92,14.76-27.25,14.76-27.25,10.74-13.61,48.7-5.73,39.39,17.19,18.62,0,37.24,16.47,31.51,38.68,4.3-10.74,18.29,.82,18.29,.82,0,0,13.94,4.2-6.83,22.61,12.18-7.37,20.77-5.52,20.77-5.52,0,0,5.01,19.34-7.88,23.64,13.61,0,28.81,11.62,23.8,23.8,20.77-21.49,63.82-9.95,63.82-9.95,0,0-4.3-15.28,2.86-22.44,12.41,3.34,19.1,16.23,19.1,16.23,5.25-18.62,29.37-14.92,29.37-14.92,2.02-19.11,45.74-22.96,46.11-7.35,3.86-22.41,21.86-22.96,21.86-22.96,0,0,5.14,8.08,1.1,21.86,5.88-6.8,15.98-4.59,15.98-4.59,0,0,3.67,19.66-8.08,29.03,21.49-6.06,38.39,8.08,38.39,8.08,0,0-9.74-6.43-10.66-18.92,8.08-4.41,20.58,1.9,20.58,1.9,0,0-5.88-7.84-3.92-14.45,6.86-.49,20.58,2.45,28.17,13.23,8.08-5.63,24.49-.73,28.9,9.8,3.67-7.1,22.04-10.78,28.66-1.71,3.92-7.1,31.72-23.64,44.58-13.72-1.84,23.88-20.58,30.5-20.58,30.5,0,0,5.88-1.84,13.23,1.84,2.94-4.78,21.68-13.23,35.27-5.51-7.72-20.21-2.2-38.95-2.2-38.95,0,0,15.06-4.04,24.98,14.7-1.1-17.27,13.23-25.35,13.23-25.35,0,0,12.86,5.51,12.12,33.99,27.56-23.33,44.46,5.33,44.46,5.33,0,0,1.47-18.37,13.23-20.58,6.98,2.94,7.72,19.84,7.72,19.84,0,0,3.31-13.23,16.9-16.17,13.96,16.17,0,35.27,0,35.27,0,0,4.41-1.47,8.45,4.41,2.57-10.66,6.98-14.33,19.11-21.68,3.31,15.43-6.98,21.68-6.98,21.68,0,0,5.14-3.31,15.8,0,.73-31.6,17.27-43.72,17.27-43.72,0,0,10.66,8.08,12.86,37.11,11.02-15.8,47.4-26.82,62.09-9.92-.73-25.35,19.84-39.68,19.84-39.68,0,0-16.17,1.1-24.62-13.59,9.67-7.25,23.55-3.79,28.85-.61,0,0-9.38-6.01-6.99-15.93,0,0-11.58,75.05,3.12,79.18-5.51-9.92,23.52-90.94,23.52-90.94,7.66,201.6-46.31,20.17,23.99,6.26,1.59-.31,7.27-4.51,8.67-5.33,3.78-2.24,44.08,9.15,63.11,7.11l.18,313.35h-620.14"/></svg>