<?xml version="1.0" encoding="UTF-8"?><svg id="Laag_1" xmlns="http://www.w3.org/2000/svg" viewBox="0 0 1920.95 1084.9"><defs><style>.layer1_svg{fill:#0a0b0d;}</style></defs><path class="layer1_svg" d="M1849.79,822.06s-31.42,65.1-196.28,102.22l29.72,41.45-5.59,6.81-29.78-41.88s-49.35,110.23-163.13,144.35c17.97-58.56,105.71-122.13,159.5-149.45-6.39-8.99-13.85-19.47-13.85-19.47,0,0-74.18,92.98-198.46,96.18,22.27-35.6,96.81-79.72,195.62-100.17-10.55-14.84-16.33-22.97-16.33-22.97,0,0-96.72,77.26-218.79,51.76,26.78-25.75,100.24-56.35,217.59-53.43-10.49-14.75-17.62-25.28-17.62-25.28,0,0-116.36,54.29-220.86,3.71,52.26-27.09,120.43-28.11,216.18-8.96-4.27-6.84-5.96-9.21-5.96-9.21,0,0-120.53,6.1-205.71-85.07,51.33-6.4,103.53,20.2,159.47,49.96-65.25-43.09-126.5-102.35-147.71-154.25,99.82,28.52,180.71,156.5,180.71,156.5,0,0-61.01-86.64-41.33-193.48,50.31,49.42,60.03,158.9,59.26,219.31,6.37,7.81,8.77,12.51,8.77,12.51,0,0-13.31-114.54,71.33-203.44,12.57,53.21-28.28,149.65-67.93,209.77,15.65,21.65,17.01,22.33,17.01,22.33,0,0,18.79-122.44,121.95-185.9-3.31,59.86-64.59,137.98-119.48,189.05,16.6,23.23,18.13,25.28,18.13,25.28,0,0,38.78-115.49,152.58-159.11-5.01,59.19-125.86,151.79-149.01,162.68,10.55,13.96,12.52,16,12.52,16,0,0,75.53-94.16,197.46-97.81Z"/><g><path class="layer1_svg" d="M1920.95,500.06V0H.2L0,484.09s50.58-9.67,54.87-64.37c6.85,11.2,16.55,10.69,16.55,10.69L0,612.85v472.05H1920.95v-424.19s-23.82-65.81-49.94-129.5c-26.12-63.69-43.83-123.29-43.83-123.29,0,0,11.58,10.05,33.72,11.07-4.77,21.29,9.4,72.9,60.05,81.07Zm-138.38,329.88s-18.39-3.75-44.62,13.25c-26.23,17-25.48,58.52-25.48,58.52,0,0-28.34-16.94-60.69-21.36-5.45,45.64,36.44,80.38,36.44,80.38,0,0-18.39-13.28-42.57-11.58-2.38,7.49-7.83,39.85,16.01,51.43-35.42,2.72-59.6,29.97-50.75,51.77-6.13-9.2-22.14-19.76-50.07-27.25-27.93-7.49-86.51,5.45-86.51,5.45,0,0,7.15-28.95-4.43-45.98-11.24-2.38-40.37,16.09-45.47,32.83-3.75-24.47-34.57-38.62-59.77-31.47,0-16.01-14.3-25.21-32.36-32.36-18.05-7.15-66.76-8.86-65.39,15.67-10.22-49.05-48.13-50.07-48.13-50.07,0,0-11.47,23.5-1.91,49.39-9.17-14.65-34.16-10.02-34.16-10.02,0,0-10.48,35.57,17.79,60.77-31.33-14.99-77.85,14.27-77.85,14.27,0,0,17.22-20.75,16.88-37.09-7.49-3.41-23.5-6.81-42.23,3.41,13.62-18.39,8.17-30.65,8.17-30.65,0,0-41.21-1.36-60.97,28.61-13.96-10.56-53.13-5.11-60.97,21.46-7.83-14.31-46.32-25.21-61.65-3.75-19.07-21.12-62.33-47.69-96.05-29.63-2.67,16.04,15.97,51.41,41.45,63.36,.52,.2,1.02,.42,1.47,.68-.49-.21-.98-.45-1.47-.68-6.29-2.38-17.87-.19-25.1,5.79-24.18-20.78-53.13-22.48-75.61-10.9,5.45-15.33,15.67-50.07,5.11-83.79-11.58-4.09-38.83,.34-53.47,31,2.72-34.4-28.27-54.5-28.27-54.5,0,0-34.4,25.55-26.23,72.55-34.06-33.04-76.29-21.12-94.68,11.92-6.47-47-29.63-44.28-29.63-44.28,0,0-18.39,19.07-15.67,41.21-2.72-9.88-12.26-28.27-35.08-32.7-11.92,8.17-26.23,44.28-1.36,75.27-4.43-2.38-13.28,0-18.05,8.52-6.13-25.2-22.82-35.76-40.87-45.3-7.15,34.06,14.65,44.62,14.65,44.62,0,0-24.18-6.13-32.7,0-1.7-68.12-37.72-91.62-37.72-91.62,0,0-30.4,22.99-26.3,79.7-45.97-51.09-113.68-46.75-133.77-22.22,3.16-38.57-27.68-75.87-41.48-84.81,24.78,.26,45.98-17.12,50.83-29.12-8.43-8.43-36.27-13.79-59.01-2.3,18.39-15.33,13.28-33.25,13.28-33.25,0,0-12.52-7.37-39.08,.8,6.9-10.73,0-22.99-18.39-26.57,1.53-19.16-13.03-51.86-28.87-57.48,3.07-57.73,16.69-131.64,18.22-144.93,19.92,1.36,27.93-.68,50.92-12.6,22.99-11.92,71.01-71.36,68.29-88.56-2.72-17.2-13.62-16.01-20.27-10.22-6.64,5.79-14.13,14.14-39.85,28.27-25.71,14.14-48.4,21-48.4,21,0,0,45.16-189.17,50.52-219.06,30.91-15.33,40.87-39.6,38.06-74.34,4.6,12.52,33.72,27.59,62.33,31.42,2.81-50.32-38.32-82.26-38.32-82.26,0,0,26.57,14.56,44.45,11.5,3.07-14.31,6.9-37.04-15.84-50.84,24.27,1.79,60.03-22.74,50.32-49.3,48.53,44.7,136.41,18.65,136.41,18.65,0,0-13.28,28.87,5.88,49.05,7.66-.26,33.97-16.35,40.68-34.65,3.9,27.93,48.47,37.46,63.03,31.33,.51,10.47,9.2,26.82,41.38,34.74,32.19,7.92,54.67-.77,56.96-18.39,6.13,31.17,23.76,44.7,47.26,50.07,5.11-10.47,9.2-27.59,2.03-47.71,3.31,5.17,20.96,14.75,34.3,9.03,1.07-20.29,4.29-39.24-16.66-60.69,48.53,9.71,77.4-15.33,77.4-15.33,0,0-19.67,17.12-18.9,38.06,16.86,10.22,44.7-4.85,44.7-4.85,0,0-13.79,18.39-8.69,31.68,9.71,1.53,45.21-4.85,59.26-28.36,20.95,14.05,52.88,0,62.58-20.69,8.94,18.14,52.37,18.9,60.8,3.32,15.07,20.18,70.76,49.05,95.28,28.87-2.55-49.05-41.89-64.37-41.89-64.37,0,0,18.9,3.83,26.57-4.34,5.36,11.5,45.21,26.57,75.87,11.75-6.64,9.96-15.07,50.58-4.34,83.53,38.83,4.6,52.88-32.19,52.88-32.19,0,0-2.81,38.57,29.12,54.67,11.75-4.6,28.87-31.93,25.03-72.55,61.82,49.56,95.54-11.92,95.54-11.92,0,0,3.07,40.53,27.93,44.96,16.69-10.22,16.69-42.92,16.69-42.92,0,0,11.24,32.7,36.44,34.4,29.29-40.87-.34-74.25-.34-74.25,0,0,12.26,.68,18.39-11.92-.34,16.01,18.39,39.17,40.19,47.34,8.17-35.08-12.94-44.62-12.94-44.62,0,0,17.03,5.79,32.81-2.72,2.16,22.82,.91,64.03,37.01,94.69,18.39-18.39,25.54-51.09,26.57-78.34,6.47,12.94,40.87,35.08,80.72,37.81s53.78-18.05,53.78-18.05c0,0-4.06,15.33,3.78,32.02,.68,12.6,5.79,60.63,5.79,60.63,0,0-13.28,6.81-20.44,23.16,10.56,8.17,25.2,8.52,25.2,8.52l22.14,121.6s-14.65,1.7-53.13-6.47c-38.49-8.17-41.82-30.54-56.2-15.67-14.37,14.87,19.07,44.96,59.26,68.62,40.19,23.66,65.05,15.17,65.05,15.17,0,0,16.86,75.1,30.14,137.95,13.28,62.84,25.03,156.85,25.03,156.85-53.13,13.11-34.06,50.59-34.06,50.59Z"/><path class="layer1_svg" d="M1276.82,230.13s34.28,36.01-5.57,62.32c-16.86-28.87-4.19-55.93,5.57-62.32Z"/><path class="layer1_svg" d="M1676.95,266.66c-9.51-32.05,9.24-55.32,20.24-59.21,0,0,24.73,43.13-20.24,59.21"/></g><path class="layer1_svg" d="M362.08,1075.66c-7.52-2.69-32.03,8.32-43.18,9.03-11.15,.71-25.13-.18-25.13-5.13v-8.85s-17.87,1.77-22.65-.35-8.85-2.48-8.14-6.02c.71-3.54,5.13-14.51,4.96-16.1-3.36-1.95-12.74-8.49-16.28-13.27-3.54-4.78-.88-5.49,2.12-20.35,3.01-14.87,40.17-196.17,47.72-224.41,7.55-28.24,14.39-70.71,15.81-84.63,1.42-13.92,9.56-34.45,9.56-34.45,0,0-4.96,9.08-9.56,7.67s-1.42-15.93,1.65-27.25,5.78-32.8,13.21-49.26c7.43-16.46,13.45-30.97,17.87-40.7,4.42-9.73,14.87-30.62,23.18-34.69,8.32-4.07,27.84-22.42,46.48-25.9,17.11-3.19,33.74,.24,46.72,6.13s25.25,13.69,29.97,18.4c4.72,4.72,21.47-1.71,12.62,13.86-8.85,15.57-26.43,51.56-27.67,55.45-1.24,3.89-8.67,13.63-11.5,18.23-2.83,4.6-13.63,21.24-15.75,26.72s-9.56,17.7-9.56,17.7c0,0,10.62,11.86,1.59,16.28,3.98,8.05,10.26,17.34,13.45,30.35s19.55,45.75,22.39,61.5c2.83,15.75,17.25,53.21,21.03,67.37,3.78,14.16,20.36,74.7,22.18,82.35,16.77,70.32,42.61,135.45,42.61,135.45,0,0-121.19,55.08-205.71,24.89Z"/></svg>